<svg width="24" height="26" viewBox="0 0 24 26" fill="none" xmlns="http://www.w3.org/2000/svg" xmlns:xlink="http://www.w3.org/1999/xlink">
<path d="M23.766,0.878L23.766,0.004C23.416,0.004 23.206,-0.03 22.996,-0.03C17.262,0.004 11.494,0.004 5.726,0.04C5.492,0.044 5.257,0.067 5.026,0.11C4.344,0.106 3.667,0.239 3.036,0.499C2.405,0.759 1.832,1.143 1.351,1.627C0.869,2.111 0.489,2.685 0.232,3.318C-0.026,3.95 -0.155,4.627 -0.148,5.31C-0.218,11.882 -0.182,18.456 -0.182,25.028L6.914,25.028L6.914,19.574L16.494,19.574L16.494,25.028L23.766,25.028C23.766,24.748 23.73,24.428 23.73,24.154C23.766,16.428 23.766,8.632 23.766,0.87M16.494,13.248L6.914,13.248C6.914,11.43 6.88,9.612 6.95,7.83C6.944,7.616 6.981,7.403 7.059,7.204C7.137,7.005 7.254,6.823 7.403,6.67C7.552,6.517 7.731,6.395 7.928,6.312C8.125,6.229 8.336,6.186 8.55,6.186C10.438,6.046 12.36,6.082 14.248,6.046L16.448,6.046L16.448,13.246L16.494,13.248Z" fill="#434343"/>
</svg>
