<svg width="26" height="26" viewBox="0 0 26 26" fill="none" xmlns="http://www.w3.org/2000/svg" xmlns:xlink="http://www.w3.org/1999/xlink">
<path d="M24.88,10.212C24.88,8.254 24.846,6.332 24.74,4.412C24.745,3.504 24.445,2.62 23.887,1.903C23.329,1.187 22.546,0.679 21.664,0.462C20.694,0.202 19.696,0.061 18.692,0.042C12.818,-0.028 6.946,-0.028 1.038,-0.028C0.838,-0.028 0.688,0.008 0.408,0.008L0.408,7.14C0.408,13.118 0.408,19.062 0.372,25.04L7.784,25.04C7.784,18.782 7.784,12.56 7.75,6.302C7.766,6.218 7.79,6.137 7.82,6.058C7.944,6.018 8.074,5.994 8.204,5.988C10.652,5.988 13.134,5.954 15.616,5.988C16.77,5.988 17.26,6.478 17.26,7.632L17.26,24.648C17.257,24.767 17.233,24.886 17.19,24.998L24.916,24.998C24.876,24.861 24.852,24.72 24.846,24.578C24.882,19.788 24.882,14.964 24.882,10.21Z" fill="#434343"/>
</svg>
