<svg width="26" height="26" viewBox="0 0 26 26" fill="none" xmlns="http://www.w3.org/2000/svg" xmlns:xlink="http://www.w3.org/1999/xlink">
<path d="M24.456,-0.032C22.498,-0.032 20.47,0.004 18.512,-0.066C17.812,-0.066 17.638,0.134 17.672,0.808C17.708,6.226 17.708,11.716 17.672,17.134C17.672,18.534 17.252,18.916 15.854,18.952L8.162,18.952L8.162,0.004L0.754,0.004L0.754,15.456C0.754,18.672 0.754,21.856 0.79,25.034L21.556,25.034C21.626,25.034 21.696,24.93 21.756,24.894C22.64,24.783 23.457,24.365 24.064,23.713C24.672,23.061 25.03,22.217 25.078,21.328C25.188,20.728 25.246,20.119 25.252,19.51C25.286,13.322 25.286,7.064 25.286,0.876L25.286,0.002C24.972,0.002 24.686,-0.034 24.446,-0.034Z" fill="#434343"/>
</svg>
